<?xml version="1.0" encoding="utf-8"?>
<!-- Generator: Adobe Illustrator 21.1.0, SVG Export Plug-In . SVG Version: 6.00 Build 0)  -->
<svg version="1.1" id="Calque_1" xmlns="http://www.w3.org/2000/svg" xmlns:xlink="http://www.w3.org/1999/xlink" x="0px" y="0px"
	 viewBox="0 0 256.5 256.8" style="enable-background:new 0 0 256.5 256.8;" xml:space="preserve">
<style type="text/css">
	.st0{fill:#72D0F4;}
</style>
<title>Fichier 1</title>
<g id="Calque_2">
	<g id="Calque_1-2">
		<path class="st0" d="M250.6,89.4c3.3,10.3,5.3,21,5.9,31.8L237,60.1C242.7,69.2,247.3,79.1,250.6,89.4L250.6,89.4z M256,141
			c-0.7,6.9-1.9,13.7-3.7,20.4l-42-131.7c5.3,4.4,10.3,9.3,14.8,14.5L256,141z M248.9,172c-1.7,4.6-3.6,9.2-5.8,13.6L188.7,15.2
			c4.4,2.3,8.6,4.9,12.6,7.7L248.9,172L248.9,172z M238.8,193.5c-2.1,3.6-4.4,7.1-6.8,10.5L169,6.7c4,1.3,7.8,2.8,11.6,4.6
			L238.8,193.5L238.8,193.5z M227.2,210.1c-2.4,2.9-4.9,5.7-7.5,8.4L150.6,2c3.7,0.7,7.4,1.5,11,2.4L227.2,210.1L227.2,210.1z
			 M214.5,223.5c-2.6,2.3-5.2,4.6-8,6.7L133,0.1c3.5,0.1,7,0.4,10.4,0.8L214.5,223.5L214.5,223.5z M201,234.2
			c-2.7,1.9-5.6,3.7-8.5,5.4l-76.3-239c3.3-0.3,6.7-0.5,10-0.6L201,234.2z M186.8,242.7c-2.9,1.5-5.8,2.8-8.9,4.1L100.1,3.1
			c3.2-0.7,6.4-1.3,9.6-1.8L186.8,242.7L186.8,242.7z M171.9,249.2c-1.5,0.6-3,1.1-4.6,1.6s-3.1,0.9-4.6,1.4L84.6,7.7
			c1.5-0.6,3-1.1,4.6-1.6s3.1-0.9,4.7-1.4L171.9,249.2L171.9,249.2z M156.3,253.7c-3.2,0.7-6.4,1.3-9.6,1.8l-77-241.4
			c2.9-1.5,5.8-2.8,8.9-4.1L156.3,253.7L156.3,253.7z M140.2,256.3c-3.3,0.3-6.7,0.5-10,0.5L55.5,22.6c2.7-1.9,5.6-3.7,8.5-5.4
			L140.2,256.3L140.2,256.3z M123.4,256.8c-3.5-0.1-7-0.4-10.4-0.8L42,33.3c2.6-2.3,5.2-4.6,8-6.7L123.4,256.8L123.4,256.8z
			 M105.9,254.9c-3.7-0.7-7.4-1.5-11-2.4L29.2,46.6c2.4-2.9,4.9-5.7,7.5-8.4L105.9,254.9L105.9,254.9z M87.4,250.1
			c-4-1.3-7.8-2.9-11.6-4.6L17.6,63.3c2.1-3.6,4.4-7.1,6.9-10.5L87.4,250.1L87.4,250.1z M67.7,241.6c-4.4-2.3-8.6-4.9-12.7-7.7
			L7.5,84.8c1.7-4.6,3.6-9.2,5.8-13.6L67.7,241.6L67.7,241.6z M46.2,227.2c-5.3-4.4-10.3-9.2-14.8-14.4L0.4,115.8
			c0.7-6.9,1.9-13.7,3.7-20.3L46.2,227.2L46.2,227.2z M19.5,196.8C8,178.4,1.3,157.4,0,135.7L19.5,196.8z"/>
	</g>
</g>
</svg>
