<?xml version="1.0" encoding="utf-8"?>
<!-- Generator: Adobe Illustrator 21.1.0, SVG Export Plug-In . SVG Version: 6.00 Build 0)  -->
<svg version="1.1" id="Calque_1" xmlns="http://www.w3.org/2000/svg" xmlns:xlink="http://www.w3.org/1999/xlink" x="0px" y="0px"
	 viewBox="0 0 259.4 264.5" style="enable-background:new 0 0 259.4 264.5;" xml:space="preserve">
<style type="text/css">
	.st0{fill:#F29BC1;}
</style>
<title>Fichier 2</title>
<g id="Calque_2">
	<g id="Calque_1-2">
		<path class="st0" d="M183.1,28.3c-2.8,0-5,2.2-5,5c0,2.8,2.2,5,5,5s5-2.2,5-5c0,0,0,0,0,0C188.1,30.5,185.9,28.3,183.1,28.3z
			 M111.9,0c-2.8,0-5,2.2-5,5s2.2,5,5,5s5-2.2,5-5S114.6,0,111.9,0z M147.5,0c-2.8,0-5,2.2-5,5s2.2,5,5,5s5-2.2,5-5S150.3,0,147.5,0
			z M5,113.1c-2.8,0-5,2.2-5,5s2.2,5,5,5s5-2.2,5-5S7.8,113.1,5,113.1z M5,141.4c-2.8,0-5,2.2-5,5s2.2,5,5,5s5-2.2,5-5
			S7.8,141.4,5,141.4z M111.9,254.5c-2.8,0-5,2.2-5,5s2.2,5,5,5s5-2.2,5-5S114.6,254.5,111.9,254.5z M147.5,254.5c-2.8,0-5,2.2-5,5
			s2.2,5,5,5s5-2.2,5-5S150.3,254.5,147.5,254.5z M76.2,226.2c-2.8,0-5,2.2-5,5s2.2,5,5,5s5-2.2,5-5S79,226.2,76.2,226.2z
			 M111.9,226.2c-2.8,0-5,2.2-5,5s2.2,5,5,5s5-2.2,5-5S114.6,226.2,111.9,226.2z M147.5,226.2c-2.8,0-5,2.2-5,5s2.2,5,5,5s5-2.2,5-5
			S150.3,226.2,147.5,226.2z M183.1,226.2c-2.8,0-5,2.2-5,5s2.2,5,5,5s5-2.2,5-5S185.9,226.2,183.1,226.2z M40.6,197.9
			c-2.8,0-5,2.2-5,5s2.2,5,5,5s5-2.2,5-5S43.4,197.9,40.6,197.9z M76.2,197.9c-2.8,0-5,2.2-5,5s2.2,5,5,5s5-2.2,5-5
			S79,197.9,76.2,197.9z M111.9,197.9c-2.8,0-5,2.2-5,5s2.2,5,5,5s5-2.2,5-5S114.6,197.9,111.9,197.9z M147.5,197.9
			c-2.8,0-5,2.2-5,5s2.2,5,5,5s5-2.2,5-5S150.3,197.9,147.5,197.9z M183.1,197.9c-2.8,0-5,2.2-5,5s2.2,5,5,5s5-2.2,5-5
			S185.9,197.9,183.1,197.9z M218.8,197.9c-2.8,0-5,2.2-5,5s2.2,5,5,5s5-2.2,5-5S221.5,197.9,218.8,197.9z M40.6,169.7
			c-2.8,0-5,2.2-5,5s2.2,5,5,5s5-2.2,5-5S43.4,169.7,40.6,169.7z M76.2,169.7c-2.8,0-5,2.2-5,5s2.2,5,5,5s5-2.2,5-5
			S79,169.7,76.2,169.7z M111.9,169.7c-2.8,0-5,2.2-5,5s2.2,5,5,5s5-2.2,5-5S114.6,169.7,111.9,169.7z M147.5,169.7
			c-2.8,0-5,2.2-5,5s2.2,5,5,5s5-2.2,5-5S150.3,169.7,147.5,169.7z M183.1,169.7c-2.8,0-5,2.2-5,5s2.2,5,5,5s5-2.2,5-5
			S185.9,169.7,183.1,169.7z M218.8,169.7c-2.8,0-5,2.2-5,5s2.2,5,5,5s5-2.2,5-5S221.5,169.7,218.8,169.7z M40.6,141.4
			c-2.8,0-5,2.2-5,5s2.2,5,5,5s5-2.2,5-5S43.4,141.4,40.6,141.4z M76.2,141.4c-2.8,0-5,2.2-5,5s2.2,5,5,5s5-2.2,5-5
			S79,141.4,76.2,141.4z M111.9,141.4c-2.8,0-5,2.2-5,5s2.2,5,5,5s5-2.2,5-5S114.6,141.4,111.9,141.4z M147.5,141.4
			c-2.8,0-5,2.2-5,5s2.2,5,5,5s5-2.2,5-5S150.3,141.4,147.5,141.4z M183.1,141.4c-2.8,0-5,2.2-5,5s2.2,5,5,5s5-2.2,5-5
			S185.9,141.4,183.1,141.4z M218.8,141.4c-2.8,0-5,2.2-5,5s2.2,5,5,5s5-2.2,5-5S221.5,141.4,218.8,141.4z M254.4,141.4
			c-2.8,0-5,2.2-5,5s2.2,5,5,5s5-2.2,5-5v0C259.4,143.6,257.2,141.4,254.4,141.4L254.4,141.4z M40.6,113.1c-2.8,0-5,2.2-5,5
			s2.2,5,5,5s5-2.2,5-5S43.4,113.1,40.6,113.1z M76.2,113.1c-2.8,0-5,2.2-5,5s2.2,5,5,5s5-2.2,5-5S79,113.1,76.2,113.1z
			 M111.9,113.1c-2.8,0-5,2.2-5,5s2.2,5,5,5s5-2.2,5-5S114.6,113.1,111.9,113.1z M147.5,113.1c-2.8,0-5,2.2-5,5s2.2,5,5,5s5-2.2,5-5
			S150.3,113.1,147.5,113.1z M183.1,113.1c-2.8,0-5,2.2-5,5s2.2,5,5,5s5-2.2,5-5S185.9,113.1,183.1,113.1z M218.8,113.1
			c-2.8,0-5,2.2-5,5s2.2,5,5,5s5-2.2,5-5S221.5,113.1,218.8,113.1z M254.4,113.1c-2.8,0-5,2.2-5,5s2.2,5,5,5s5-2.2,5-5c0,0,0,0,0,0
			C259.4,115.3,257.2,113.1,254.4,113.1L254.4,113.1z M40.6,84.8c-2.8,0-5,2.2-5,5s2.2,5,5,5s5-2.2,5-5S43.4,84.8,40.6,84.8z
			 M76.2,84.8c-2.8,0-5,2.2-5,5s2.2,5,5,5s5-2.2,5-5S79,84.8,76.2,84.8z M111.9,84.8c-2.8,0-5,2.2-5,5s2.2,5,5,5s5-2.2,5-5
			S114.6,84.8,111.9,84.8z M147.5,84.8c-2.8,0-5,2.2-5,5s2.2,5,5,5s5-2.2,5-5S150.3,84.8,147.5,84.8z M183.1,84.8c-2.8,0-5,2.2-5,5
			s2.2,5,5,5s5-2.2,5-5S185.9,84.8,183.1,84.8z M218.8,84.8c-2.8,0-5,2.2-5,5s2.2,5,5,5s5-2.2,5-5S221.5,84.8,218.8,84.8z
			 M40.6,56.6c-2.8,0-5,2.2-5,5s2.2,5,5,5s5-2.2,5-5S43.4,56.6,40.6,56.6z M76.2,56.6c-2.8,0-5,2.2-5,5s2.2,5,5,5s5-2.2,5-5
			S79,56.6,76.2,56.6z M111.9,56.6c-2.8,0-5,2.2-5,5s2.2,5,5,5s5-2.2,5-5S114.6,56.6,111.9,56.6z M147.5,56.6c-2.8,0-5,2.2-5,5
			s2.2,5,5,5s5-2.2,5-5S150.3,56.6,147.5,56.6z M183.1,56.6c-2.8,0-5,2.2-5,5s2.2,5,5,5s5-2.2,5-5S185.9,56.6,183.1,56.6z
			 M218.8,56.6c-2.8,0-5,2.2-5,5s2.2,5,5,5s5-2.2,5-5S221.5,56.6,218.8,56.6z M76.2,28.3c-2.8,0-5,2.2-5,5c0,2.8,2.2,5,5,5
			s5-2.2,5-5c0,0,0,0,0,0C81.2,30.5,79,28.3,76.2,28.3z M111.9,28.3c-2.8,0-5,2.2-5,5c0,2.8,2.2,5,5,5s5-2.2,5-5c0,0,0,0,0,0
			C116.9,30.5,114.6,28.3,111.9,28.3z M147.5,28.3c-2.8,0-5,2.2-5,5c0,2.8,2.2,5,5,5s5-2.2,5-5c0,0,0,0,0,0
			C152.5,30.5,150.3,28.3,147.5,28.3z"/>
	</g>
</g>
</svg>
