<?xml version="1.0" encoding="utf-8"?>
<!-- Generator: Adobe Illustrator 21.1.0, SVG Export Plug-In . SVG Version: 6.00 Build 0)  -->
<svg version="1.1" id="Calque_1" xmlns="http://www.w3.org/2000/svg" xmlns:xlink="http://www.w3.org/1999/xlink" x="0px" y="0px"
	 viewBox="0 0 36.5 234.4" style="enable-background:new 0 0 36.5 234.4;" xml:space="preserve">
<style type="text/css">
	.st0{fill:#FEEE44;}
</style>
<title>Fichier 3</title>
<g>
	<path class="st0" d="M0,208.4l6.4-6.4l11.9,11.9L30.2,202l6.4,6.4l-11.9,11.8l-6.4,6.4l-6.4-6.4L0,208.4z M0,160.4l6.4-6.4
		l11.9,11.9L30.2,154l6.4,6.4l-11.9,11.8l-6.4,6.4l-6.4-6.4L0,160.4L0,160.4z M0,112.4l6.4-6.4l11.9,11.9L30.2,106l6.4,6.4
		l-11.9,11.8l-6.4,6.4l-6.4-6.4L0,112.4L0,112.4z M0,64.4L6.4,58l11.9,11.8l11.9-11.9l6.4,6.4L24.7,76.1l-6.4,6.4l-6.4-6.4L0,64.4
		L0,64.4z"/>
	<polygon class="st0" points="0,16.5 6.4,10.1 18.3,21.9 30.1,10 36.5,16.4 24.7,28.3 18.3,34.7 11.9,28.3 0,16.4 	"/>
</g>
</svg>
