<?xml version="1.0" encoding="utf-8"?>
<!-- Generator: Adobe Illustrator 21.1.0, SVG Export Plug-In . SVG Version: 6.00 Build 0)  -->
<svg version="1.1" id="Calque_1" xmlns="http://www.w3.org/2000/svg" xmlns:xlink="http://www.w3.org/1999/xlink" x="0px" y="0px"
	 viewBox="0 0 120.6 120.6" style="enable-background:new 0 0 120.6 120.6;" xml:space="preserve">
<style type="text/css">
	.st0{fill:#FEEE44;}
</style>
<title>Fichier 4_1</title>
<g id="Calque_2">
	<g id="Calque_1-2">
		<path class="st0" d="M120.6,60.3c0,33.3-27,60.3-60.3,60.3S0,93.6,0,60.3C0,27,27,0,60.3,0c0,0,0,0,0,0
			C93.6,0,120.6,27,120.6,60.3L120.6,60.3z M86.8,60.3c0,14.6-11.9,26.5-26.5,26.5S33.8,74.9,33.8,60.3c0-14.6,11.9-26.5,26.5-26.5
			C75,33.8,86.8,45.7,86.8,60.3C86.8,60.3,86.8,60.3,86.8,60.3z"/>
	</g>
</g>
</svg>
