<svg xmlns="http://www.w3.org/2000/svg" viewBox="0 0 150.71 217.19"><defs><style>.cls-1{fill:#c6c6c6;fill-rule:evenodd;}</style></defs><title>Fichier 6</title><g id="Calque_2" data-name="Calque 2"><g id="Calque_1-2" data-name="Calque 1"><path class="cls-1" d="M147.74,108.6,141.18,105v7.18l6.56-3.59ZM0,217.19l6.56-3.59L0,210v7.18Zm0-150,6.56-3.59L0,60v7.18Zm0,90,6.56-3.59L0,150v7.18Zm0-120,6.56-3.59L0,30v7.18Zm0,150,6.56-3.59L0,180v7.18Zm0-90,6.56-3.59L0,90v7.18Zm0,30,6.56-3.59L0,120v7.18Zm0-120L6.56,3.59,0,0V7.18Zm80.68,210,6.56-3.59L80.68,210v7.18Zm0-150,6.56-3.59L80.68,60v7.18Zm0,90,6.56-3.59L80.68,150v7.18Zm0-120,6.56-3.59L80.68,30v7.18Zm0,150,6.56-3.59L80.68,180v7.18Zm0-90,6.56-3.59L80.68,90v7.18Zm0,30,6.56-3.59L80.68,120v7.18Zm0-120,6.56-3.59L80.68,0V7.18Zm-40.34,210,6.56-3.59L40.34,210v7.18Zm0-150,6.56-3.59L40.34,60v7.18Zm0,90,6.56-3.59L40.34,150v7.18Zm0-120,6.56-3.59L40.34,30v7.18Zm0,150,6.56-3.59L40.34,180v7.18Zm0-90,6.56-3.59L40.34,90v7.18Zm0,30,6.56-3.59L40.34,120v7.18Zm0-120L46.9,3.59,40.34,0V7.18Zm80.68,210,6.56-3.59L121,210v7.18Zm0-150,6.56-3.59L121,60v7.18Zm0,90,6.56-3.59L121,150v7.18Zm0-120,6.56-3.59L121,30v7.18Zm0,150,6.56-3.59L121,180v7.18Zm0-90,6.56-3.59L121,90v7.18Zm0,30,6.56-3.59L121,120v7.18Zm0-120,6.56-3.59L121,0V7.18ZM29.69,210l-6.56,3.59,6.56,3.59V210Zm0-150-6.56,3.59,6.56,3.59V60Zm0,90-6.56,3.59,6.56,3.59V150Zm0-120-6.56,3.59,6.56,3.59V30Zm0,150-6.56,3.59,6.56,3.59V180Zm0-90-6.56,3.59,6.56,3.59V90Zm0,30-6.56,3.59,6.56,3.59V120Zm0-120L23.14,3.59l6.56,3.59V0Zm80.68,210-6.56,3.59,6.56,3.59V210Zm0-150-6.56,3.59,6.56,3.59V60Zm0,90-6.56,3.59,6.56,3.59V150Zm0-120-6.56,3.59,6.56,3.59V30Zm0,150-6.56,3.59,6.56,3.59V180Zm0-90-6.56,3.59,6.56,3.59V90Zm0,30-6.56,3.59,6.56,3.59V120Zm0-120-6.56,3.59,6.56,3.59V0ZM70,210l-6.56,3.59L70,217.19V210ZM70,60l-6.56,3.59L70,67.18V60Zm0,90-6.56,3.59L70,157.19V150ZM70,30l-6.56,3.59L70,37.18V30Zm0,150-6.56,3.59L70,187.19V180Zm0-90-6.56,3.59L70,97.18V90Zm0,30-6.56,3.59L70,127.18V120ZM70,0,63.47,3.59,70,7.18V0Zm80.68,210-6.56,3.59,6.56,3.59V210Zm0-150-6.56,3.59,6.56,3.59V60Zm0,90-6.56,3.59,6.56,3.59V150Zm0-120-6.56,3.59,6.56,3.59V30Zm0,150-6.56,3.59,6.56,3.59V180Zm0-90-6.56,3.59,6.56,3.59V90Zm0,30-6.56,3.59,6.56,3.59V120Zm0-120-6.56,3.59,6.56,3.59V0ZM3,108.6l6.56,3.59V105L3,108.6Zm0-30,6.56,3.59V75L3,78.59Zm0,60,6.56,3.59V135L3,138.6Zm0-120,6.56,3.59V15L3,18.59Zm0,180,6.56,3.59V195L3,198.6Zm0-150,6.56,3.59V45L3,48.59Zm0,120,6.56,3.59V165L3,168.6Zm80.68-60,6.56,3.59V105l-6.56,3.59Zm0-30,6.56,3.59V75l-6.56,3.59Zm0,60,6.56,3.59V135l-6.56,3.59Zm0-120,6.56,3.59V15l-6.56,3.59Zm0,180,6.56,3.59V195l-6.56,3.59Zm0-150,6.56,3.59V45l-6.56,3.59Zm0,120,6.56,3.59V165l-6.56,3.59Zm-40.34-60,6.56,3.59V105L43.3,108.6Zm0-30,6.56,3.59V75L43.3,78.59Zm0,60,6.56,3.59V135L43.3,138.6Zm0-120,6.56,3.59V15L43.3,18.59Zm0,180,6.56,3.59V195L43.3,198.6Zm0-150,6.56,3.59V45L43.3,48.59Zm0,120,6.56,3.59V165L43.3,168.6Zm80.68-60,6.56,3.59V105L124,108.6Zm0-30,6.56,3.59V75L124,78.59Zm0,60,6.56,3.59V135L124,138.6Zm0-120,6.56,3.59V15L124,18.59Zm0,180,6.56,3.59V195L124,198.6Zm0-150,6.56,3.59V45L124,48.59Zm0,120,6.56,3.59V165L124,168.6Zm-97.25-60L20.17,105v7.18l6.56-3.59Zm0-30L20.17,75v7.18l6.56-3.59Zm0,60L20.17,135v7.18l6.56-3.59Zm0-120L20.17,15v7.18l6.56-3.59Zm0,180L20.17,195v7.18l6.56-3.59Zm0-150L20.17,45v7.18l6.56-3.59Zm0,120L20.17,165v7.18l6.56-3.59Zm80.68-60L100.85,105v7.18l6.56-3.59Zm0-30L100.85,75v7.18l6.56-3.59Zm0,60L100.85,135v7.18l6.56-3.59Zm0-120L100.85,15v7.18l6.56-3.59Zm0,180L100.85,195v7.18l6.56-3.59Zm0-150L100.85,45v7.18l6.56-3.59Zm0,120L100.85,165v7.18l6.56-3.59Zm-40.34-60L60.51,105v7.18l6.56-3.59Zm0-30L60.51,75v7.18l6.56-3.59Zm0,60L60.51,135v7.18l6.56-3.59Zm0-120L60.51,15v7.18l6.56-3.59Zm0,180L60.51,195v7.18l6.56-3.59Zm0-150L60.51,45v7.18l6.56-3.59Zm0,120L60.51,165v7.18l6.56-3.59Zm80.68-90L141.18,75v7.18l6.56-3.59Zm0,60L141.18,135v7.18l6.56-3.59Zm0-120L141.18,15v7.18l6.56-3.59Zm0,180L141.18,195v7.18l6.56-3.59Zm0-150L141.18,45v7.18l6.56-3.59Zm0,120L141.18,165v7.18l6.56-3.59Z"/></g></g></svg>